 <svg width="31" height="40" viewBox="0 0 31 40" fill="none" xmlns="http://www.w3.org/2000/svg">
<path d="M29.5517 3.00771L22.7205 9.84574L20.0017 12.5646L19.1273 13.4389L5.73819 26.8281V26.8213L4.89795 26.3362V22.4288L26.9354 0.391357L29.5517 3.00771Z" fill="white"/>
<path d="M22.0784 18.6922L10.9435 29.827L7.63037 27.9074L19.462 16.069L22.0784 18.6922Z" fill="white"/>
<path d="M31.0001 17.9749L28.0832 20.8918L24.3807 24.6011L21.9009 27.074L14.0382 31.6099L12.8291 30.9132L24.3807 19.3616L28.0832 15.6591L28.3837 15.3585L31.0001 17.9749Z" fill="white"/>
<path d="M24.3805 29.3618L18.6423 32.6749L14.0381 35.3391L11.9546 34.1368L10.0692 33.0507L6.74922 31.1311L5.84067 30.6051L4.87064 30.0381L4.65205 29.9151L3.70251 29.3686V17.4277L14.0381 11.4504L15.7118 12.4136L18.4237 9.70162L14.0381 7.17407L0 15.2895V31.5068L14.0381 39.6086L28.0831 31.5068V24.7712L24.3805 28.4738V29.3618ZM23.6906 12.7483L20.9718 15.4671L24.3737 17.4345V20.1738L28.0762 16.4713V15.2964L23.6838 12.7552L23.6906 12.7483Z" fill="white"/>
</svg>
