<svg width="32" height="32" viewBox="0 0 32 32" fill="none" xmlns="http://www.w3.org/2000/svg">
<path d="M14.6668 9.33329H22.6668M5.3335 18.6666H8.52683C8.91883 18.6666 9.3055 18.7546 9.65616 18.9253L12.3788 20.2426C12.7295 20.412 13.1162 20.5 13.5095 20.5H14.8988C16.2428 20.5 17.3335 21.5546 17.3335 22.856C17.3335 22.9093 17.2975 22.9546 17.2455 22.9693L13.8575 23.9066C13.2496 24.0746 12.6013 24.0158 12.0335 23.7413L9.12283 22.3333M14.6668 6.66663V12C14.6668 12.5252 14.7703 13.0454 14.9713 13.5307C15.1723 14.016 15.467 14.457 15.8384 14.8284C16.2098 15.1998 16.6508 15.4945 17.1361 15.6955C17.6214 15.8965 18.1415 16 18.6668 16C19.1921 16 19.7123 15.8965 20.1976 15.6955C20.6829 15.4945 21.1238 15.1998 21.4953 14.8284C21.8667 14.457 22.1613 14.016 22.3623 13.5307C22.5634 13.0454 22.6668 12.5252 22.6668 12V6.66663C22.6668 6.14134 22.5634 5.62119 22.3623 5.13589C22.1613 4.65059 21.8667 4.20963 21.4953 3.8382C21.1238 3.46676 20.6829 3.17213 20.1976 2.97111C19.7123 2.77009 19.1921 2.66663 18.6668 2.66663C18.1415 2.66663 17.6214 2.77009 17.1361 2.97111C16.6508 3.17213 16.2098 3.46676 15.8384 3.8382C15.467 4.20963 15.1723 4.65059 14.9713 5.13589C14.7703 5.62119 14.6668 6.14134 14.6668 6.66663Z" stroke="url(#paint0_linear_4042_475)" stroke-width="1.5" stroke-linecap="round" stroke-linejoin="round"/>
<path d="M17.3335 22L23.4575 20.1186C23.9906 19.955 24.5618 19.964 25.0896 20.1443C25.6173 20.3246 26.0746 20.667 26.3962 21.1226C26.8882 21.8026 26.6882 22.7786 25.9708 23.192L15.9508 28.9746C15.6375 29.1559 15.2906 29.2715 14.9311 29.3144C14.5717 29.3572 14.2073 29.3265 13.8602 29.224L5.3335 26.6933" stroke="url(#paint1_linear_4042_475)" stroke-width="1.5" stroke-linecap="round" stroke-linejoin="round"/>
<defs>
<linearGradient id="paint0_linear_4042_475" x1="5.93815" y1="4.36578" x2="23.7729" y2="7.30584" gradientUnits="userSpaceOnUse">
<stop stop-color="#6AFEB0"/>
<stop offset="1" stop-color="#5CE3FB"/>
</linearGradient>
<linearGradient id="paint1_linear_4042_475" x1="6.07769" y1="20.7454" x2="24.6321" y2="29.3525" gradientUnits="userSpaceOnUse">
<stop stop-color="#6AFEB0"/>
<stop offset="1" stop-color="#5CE3FB"/>
</linearGradient>
</defs>
</svg>
