<svg width="32" height="32" viewBox="0 0 32 32" fill="none" xmlns="http://www.w3.org/2000/svg">
<path d="M16 31.5C15.7004 31.5 15.4028 31.4914 15.1074 31.4746L14.5444 30.6923C14.5518 30.7009 14.5591 30.7094 14.5665 30.7178C14.9575 31.165 15.4404 31.5 16 31.5ZM16 31.5C16.3002 31.5 16.5984 31.4914 16.8943 31.4745L17.4631 30.6835C17.4533 30.695 17.4434 30.7065 17.4335 30.7178C17.0425 31.165 16.5596 31.5 16 31.5ZM11.8399 21.8665L12.3111 21.7921C13.5289 21.5999 14.7598 21.5023 15.9928 21.5M11.8399 21.8665L15.9928 21.5M11.8399 21.8665L11.8397 21.8647L12.351 21.785C13.5559 21.5973 14.7734 21.502 15.9928 21.5M11.8399 21.8665L15.9928 21.5M16 0.5C15.4404 0.5 14.9575 0.834958 14.5665 1.28222C14.5566 1.29349 14.5468 1.30488 14.537 1.31638L15.1057 0.525502C15.4017 0.508578 15.6999 0.5 16 0.5ZM16 0.5C16.5596 0.5 17.0425 0.834958 17.4335 1.28222C17.4402 1.28985 17.4469 1.29754 17.4535 1.30528L16.8914 0.525335C16.5964 0.508522 16.2992 0.5 16 0.5ZM0.517427 16.5L0.520196 16.5426L0.508051 16.5087C0.508406 16.5071 0.508762 16.5054 0.509118 16.5037L0.509913 16.5H0.517427ZM14.7123 31.447C11.0597 31.1447 7.7655 29.5686 5.27236 27.1651C6.77823 28.6098 8.56468 29.7415 10.5289 30.4856L11.0127 29.6394C11.8576 30.3149 12.7773 30.8266 13.7553 31.1401L14.7123 31.447ZM25.2109 23.4052L24.9403 23.2913L25.2115 23.4038L25.2109 23.4052ZM21.471 30.4846C23.4615 29.7314 25.2693 28.5797 26.7874 27.1073C24.2875 29.543 20.9704 31.1419 17.289 31.4468L18.2457 31.1401C19.2237 30.8266 20.1434 30.3149 20.9883 29.6394L21.471 30.4846ZM31.4918 16.5079L31.4801 16.5377L31.4826 16.5H31.4901L31.4909 16.5037C31.4912 16.5051 31.4915 16.5065 31.4918 16.5079ZM31.5078 16.571C31.5078 16.571 31.5078 16.5709 31.5077 16.5709C31.5078 16.571 31.5078 16.5711 31.5078 16.5711L31.5078 16.571L31.5078 16.571ZM26.4859 16.5L26.4859 16.501H25.966H20.986H20.4955L20.4861 16.9914C20.484 17.099 20.4816 17.2066 20.4789 17.3142C20.4812 17.2122 20.4832 17.1103 20.4849 17.0083L20.4934 16.5H20.5H21H26H26.4859ZM19.648 21.785L20.1602 21.8649L20.1601 21.8659L19.6872 21.792C18.9534 21.6773 18.2068 21.5937 17.4514 21.5461C18.1866 21.5918 18.9196 21.6715 19.648 21.785ZM12.351 10.215L11.8395 10.1352L11.8396 10.1342L12.3118 10.208C13.0696 10.3264 13.8406 10.4116 14.6208 10.4584C13.861 10.4134 13.1035 10.3322 12.351 10.215ZM11.5 16C11.5 15.9819 11.5 15.9638 11.5 15.9457L11.5 16ZM13.7543 0.859872C12.7763 1.17344 11.8566 1.68511 11.0117 2.36058L10.529 1.51538C7.93967 2.49549 5.6592 4.14957 3.92346 6.30653L3.62299 6.67992C6.21145 3.25122 10.1893 0.927132 14.7112 0.553087L13.7543 0.859872ZM3.59101 6.72244L3.66061 6.77156L3.59223 6.72335L3.30448 7.13413C1.56114 9.62287 0.521197 12.6409 0.500318 15.8999C0.522172 12.4622 1.66927 9.28613 3.59101 6.72244ZM5.5 15.9986C5.49786 15.2131 5.53878 14.4293 5.62218 13.6506C5.54193 14.4164 5.50002 15.2006 5.5 15.9993L5.5 15.9986ZM18.2446 0.859872L17.2874 0.552975C21.7995 0.925812 25.7701 3.24024 28.3592 6.65636L28.0775 6.30644C26.3412 4.14992 24.0611 2.49571 21.4722 1.51446L20.9882 2.36128C20.143 1.68547 19.223 1.17355 18.2446 0.859872ZM28.4093 6.72576L28.4107 6.72474C30.35 9.31289 31.5 12.5248 31.5 16C31.5013 12.8261 30.522 9.72932 28.696 7.13333L28.4093 6.72576ZM25.2123 8.59478L25.2126 8.59533L24.7283 8.79764C24.4364 8.91956 24.1395 9.03537 23.8381 9.14489C24.1504 9.03098 24.4602 8.90973 24.7671 8.7812L25.2123 8.59478ZM20.1602 10.1343L20.1604 10.1353L19.649 10.215C18.8965 10.3322 18.139 10.4134 17.3792 10.4584C18.1594 10.4116 18.9304 10.3264 19.6882 10.208L20.1602 10.1343ZM11.5045 16.5H11.5056L11.5129 16.9378L11.5045 16.5Z" fill="url(#paint0_linear_4193_274)" stroke="url(#paint1_linear_4193_274)"/>
<defs>
<linearGradient id="paint0_linear_4193_274" x1="1.11628" y1="2.54867" x2="33.5996" y2="9.13944" gradientUnits="userSpaceOnUse">
<stop stop-color="#6AFEB0"/>
<stop offset="1" stop-color="#5CE3FB"/>
</linearGradient>
<linearGradient id="paint1_linear_4193_274" x1="1.11628" y1="2.54867" x2="33.5996" y2="9.13944" gradientUnits="userSpaceOnUse">
<stop stop-color="#6AFEB0"/>
<stop offset="1" stop-color="#5CE3FB"/>
</linearGradient>
</defs>
</svg>
