<svg width="138" height="40" viewBox="0 0 138 40" fill="none" xmlns="http://www.w3.org/2000/svg">
<path d="M29.5517 3.00771L22.7205 9.84574L20.0017 12.5646L19.1273 13.4389L5.73819 26.8281V26.8213L4.89795 26.3362V22.4288L26.9354 0.391357L29.5517 3.00771Z" fill="white"/>
<path d="M22.0784 18.6922L10.9435 29.827L7.63037 27.9074L19.462 16.069L22.0784 18.6922Z" fill="white"/>
<path d="M31.0001 17.9749L28.0832 20.8918L24.3807 24.6011L21.9009 27.074L14.0382 31.6099L12.8291 30.9132L24.3807 19.3616L28.0832 15.6591L28.3837 15.3585L31.0001 17.9749Z" fill="white"/>
<path d="M24.3805 29.3618L18.6423 32.6749L14.0381 35.3391L11.9546 34.1368L10.0692 33.0507L6.74922 31.1311L5.84067 30.6051L4.87064 30.0381L4.65205 29.9151L3.70251 29.3686V17.4277L14.0381 11.4504L15.7118 12.4136L18.4237 9.70162L14.0381 7.17407L0 15.2895V31.5068L14.0381 39.6086L28.0831 31.5068V24.7712L24.3805 28.4738V29.3618ZM23.6906 12.7483L20.9718 15.4671L24.3737 17.4345V20.1738L28.0762 16.4713V15.2964L23.6838 12.7552L23.6906 12.7483Z" fill="white"/>
<path d="M46.224 29L38.88 12.2H42.264L48.816 27.392H46.872L53.496 12.2H56.616L49.296 29H46.224ZM63.1029 29.168C62.0149 29.168 61.0549 28.968 60.2229 28.568C59.3909 28.152 58.7429 27.528 58.2789 26.696C57.8149 25.848 57.5829 24.784 57.5829 23.504V16.184H60.5829V23.096C60.5829 24.248 60.8389 25.112 61.3509 25.688C61.8789 26.248 62.6229 26.528 63.5829 26.528C64.2869 26.528 64.8949 26.384 65.4069 26.096C65.9349 25.808 66.3429 25.376 66.6309 24.8C66.9349 24.224 67.0869 23.512 67.0869 22.664V16.184H70.0869V29H67.2309V25.544L67.7349 26.6C67.3029 27.432 66.6709 28.072 65.8389 28.52C65.0069 28.952 64.0949 29.168 63.1029 29.168ZM74.0149 29V11.192H77.0149V29H74.0149ZM81.3604 29V15.464C81.3604 14.12 81.7524 13.048 82.5364 12.248C83.3364 11.432 84.4724 11.024 85.9444 11.024C86.4724 11.024 86.9684 11.08 87.4324 11.192C87.9124 11.304 88.3124 11.48 88.6324 11.72L87.8164 13.976C87.5924 13.8 87.3364 13.672 87.0484 13.592C86.7604 13.496 86.4644 13.448 86.1604 13.448C85.5364 13.448 85.0644 13.624 84.7444 13.976C84.4244 14.312 84.2644 14.824 84.2644 15.512V16.952L84.3604 18.296V29H81.3604ZM79.2484 18.68V16.28H87.7924V18.68H79.2484ZM95.2358 29.168C94.1478 29.168 93.1878 28.968 92.3558 28.568C91.5238 28.152 90.8758 27.528 90.4118 26.696C89.9478 25.848 89.7158 24.784 89.7158 23.504V16.184H92.7158V23.096C92.7158 24.248 92.9718 25.112 93.4838 25.688C94.0118 26.248 94.7558 26.528 95.7158 26.528C96.4198 26.528 97.0278 26.384 97.5398 26.096C98.0678 25.808 98.4758 25.376 98.7638 24.8C99.0678 24.224 99.2198 23.512 99.2198 22.664V16.184H102.22V29H99.3638V25.544L99.8678 26.6C99.4358 27.432 98.8038 28.072 97.9718 28.52C97.1398 28.952 96.2278 29.168 95.2358 29.168ZM113.42 16.04C114.444 16.04 115.356 16.24 116.156 16.64C116.972 17.04 117.612 17.656 118.076 18.488C118.54 19.304 118.772 20.36 118.772 21.656V29H115.772V22.04C115.772 20.904 115.5 20.056 114.956 19.496C114.428 18.936 113.684 18.656 112.724 18.656C112.02 18.656 111.396 18.8 110.852 19.088C110.308 19.376 109.884 19.808 109.58 20.384C109.292 20.944 109.148 21.656 109.148 22.52V29H106.148V16.184H109.004V19.64L108.5 18.584C108.948 17.768 109.596 17.144 110.444 16.712C111.308 16.264 112.3 16.04 113.42 16.04ZM128.025 29.168C126.793 29.168 125.681 28.896 124.689 28.352C123.713 27.792 122.945 27.024 122.385 26.048C121.825 25.072 121.545 23.92 121.545 22.592C121.545 21.264 121.825 20.112 122.385 19.136C122.945 18.16 123.713 17.4 124.689 16.856C125.681 16.312 126.793 16.04 128.025 16.04C129.097 16.04 130.057 16.28 130.905 16.76C131.753 17.224 132.425 17.936 132.921 18.896C133.417 19.856 133.665 21.088 133.665 22.592C133.665 24.08 133.425 25.312 132.945 26.288C132.465 27.248 131.801 27.968 130.953 28.448C130.105 28.928 129.129 29.168 128.025 29.168ZM128.385 26.6C129.105 26.6 129.745 26.44 130.305 26.12C130.881 25.8 131.337 25.336 131.673 24.728C132.025 24.12 132.201 23.408 132.201 22.592C132.201 21.76 132.025 21.048 131.673 20.456C131.337 19.848 130.881 19.384 130.305 19.064C129.745 18.744 129.105 18.584 128.385 18.584C127.665 18.584 127.017 18.744 126.441 19.064C125.881 19.384 125.425 19.848 125.073 20.456C124.737 21.048 124.569 21.76 124.569 22.592C124.569 23.408 124.737 24.12 125.073 24.728C125.425 25.336 125.881 25.8 126.441 26.12C127.017 26.44 127.665 26.6 128.385 26.6ZM132.273 29V25.976L132.393 22.568L132.153 19.16V11.192H135.129V29H132.273Z" fill="white"/>
</svg>
